<svg xmlns="http://www.w3.org/2000/svg" xml:space="preserve" width="2000" height="262" data-id="lg_BTO4yjuCC7iRA9979W" data-version="1" viewBox="0 0 2000 262"><g data-padding="20"><g transform="translate(10 3.905)scale(.9702)"><path fill="#fff" d="M786.195 0c-54.28 3.839-97.644 47.203-101.482 101.483-.3 4.236 3.044 7.842 7.29 7.842h94.728a7.31 7.31 0 0 0 7.308-7.308V7.29c0-4.246-3.606-7.588-7.842-7.29ZM920.69 103.27C916.851 48.99 873.487 5.628 819.207 1.79c-4.236-.3-7.842 3.044-7.842 7.29v94.728a7.31 7.31 0 0 0 7.308 7.308H913.4c4.246 0 7.588-3.606 7.29-7.842Zm-10.344 22.38c-54.28 3.839-97.644 47.203-101.482 101.483-.3 4.236 3.044 7.842 7.29 7.842h94.728a7.31 7.31 0 0 0 7.308-7.308V132.94c0-4.246-3.606-7.588-7.842-7.29Zm-225.63 9.695c3.838 54.28 47.202 97.644 101.482 101.482 4.236.3 7.842-3.044 7.842-7.29v-94.728a7.31 7.31 0 0 0-7.308-7.308h-94.726c-4.246 0-7.588 3.606-7.29 7.842Z"/><rect width="342.277" height="127.69" x="393.498" y="-336.932" fill="none" rx="0" ry="0" transform="translate(620.36 471.26)"/><path fill="#fff" d="M1024.247 234.803q-3.39 0-5.76-2.32-2.38-2.31-2.38-5.7 0-3.51 2.32-5.82 2.32-2.32 5.82-2.32 3.62 0 5.88 2.32 2.25 2.31 2.25 5.82 0 3.39-2.31 5.7-2.32 2.32-5.82 2.32m42.61-.01q-7.57 0-13.73-3.28t-9.83-9.49q-3.67-6.22-3.67-14.92 0-8.13 3.33-14.12t9.38-9.27q6.05-3.27 13.95-3.27 6.56 0 10.8 1.69 4.23 1.7 6.38 3.62l-5.42 9.83q-.46-.57-1.81-1.7-1.36-1.13-3.56-2.09t-5.37-.96q-7.46 0-11.13 4.52t-3.67 11.64q0 8.25 3.9 12.94t10.9 4.69q3.73 0 7.01-1.08 3.27-1.07 4.97-2.31l4.41 8.59q-2.04 1.58-6.44 3.27-4.41 1.7-10.4 1.7m52.66 0q-8.14 0-14.3-3.62-6.16-3.61-9.55-9.83-3.39-6.21-3.39-13.78 0-7.46 3.34-13.62 3.33-6.16 9.43-9.83 6.11-3.67 14.47-3.67t14.46 3.67 9.38 9.83 3.28 13.62q0 7.57-3.34 13.78-3.33 6.22-9.43 9.83-6.1 3.62-14.35 3.62m.34-9.95q6.78 0 10.45-4.97t3.67-12.09q0-4.86-1.81-8.76-1.8-3.89-5.14-6.27-3.33-2.37-7.85-2.37-4.41 0-7.57 2.37-3.17 2.38-4.92 6.27-1.75 3.9-1.75 8.76 0 4.75 1.92 8.65 1.92 3.89 5.26 6.15 3.33 2.26 7.74 2.26m52.09 8.83h-12.32v-51.87h12.21v9.38q2.6-5.54 7.45-8.14 4.86-2.59 10.85-2.59 7.69.11 11.64 2.71 3.96 2.6 5.43 6.89 2.48-4.41 7.45-7.01 4.98-2.59 10.51-2.59 8.48 0 12.6 3.22 4.13 3.22 5.43 9.26 1.3 6.05 1.3 14.75v25.99h-12.32v-26.1q0-8.71-1.75-12.89t-7.29-4.18q-7.46 0-10.96 4.97-3.5 4.98-3.5 12.43v25.77h-12.21v-27.91q0-4.86-.39-8.25-.4-3.39-2.38-5.2-1.97-1.81-6.72-1.81-3.96 0-7.4 2.38-3.45 2.37-5.54 6.27t-2.09 8.75Z"/><path fill="#fff" fill-rule="evenodd" d="m990.667 178.533-6 33.12c-.24.72-.24 1.2-.24 1.44 0 .48.24.96.48 1.2s.72.48 1.44.48a9.6 9.6 0 0 0 5.04-1.68c2.64-1.68 5.04-4.08 6.72-7.2s2.64-6.96 2.64-11.52c0-7.44-2.4-13.2-7.2-17.52q-7.2-6.48-19.44-6.48c-6 0-11.52 1.2-16.32 3.84s-8.64 6.24-11.28 11.04-4.08 10.08-4.08 15.84c0 9.12 2.88 16.08 8.64 21.36q8.64 7.92 22.32 7.92c4.56 0 8.64-.72 12.96-1.92 4.08-1.2 8.16-3.36 11.76-5.76h9.84c-2.64 2.64-5.04 4.8-7.44 6.48a49.7 49.7 0 0 1-26.88 7.68c-7.44 0-13.92-1.44-19.92-4.56-5.76-2.88-10.32-7.2-13.68-12.72a34.8 34.8 0 0 1-5.04-18.24 36.24 36.24 0 0 1 18.72-32.16c5.76-3.12 12.48-4.56 20.16-4.56 10.08 0 18.24 2.88 24.48 8.4q9.36 8.28 9.36 21.6 0 7.92-3.6 14.4c-2.4 4.32-6 7.92-10.8 10.32-3.6 1.92-7.2 2.88-10.32 2.88-1.92 0-3.36-.48-4.56-1.2s-2.16-1.92-2.64-3.84c-2.16 1.92-4.08 3.12-5.76 3.84s-3.6.96-5.52.96c-4.32 0-7.92-1.44-10.8-4.56-3.12-3.12-4.56-7.68-4.56-13.44 0-6.96 1.92-12.96 6-18.72 3.84-5.52 8.88-8.4 14.64-8.4 2.16 0 4.32.48 6 1.44s3.36 2.64 5.28 4.8l.96-4.8h8.64Zm-31.68 27.6c0 3.36.72 6 2.4 7.68 1.2 1.44 2.64 2.16 4.56 2.16s3.84-.72 5.52-2.16 3.12-4.56 4.32-9.12 1.92-8.64 1.92-12.24c0-2.64-.72-4.8-1.92-6.24-1.44-1.44-2.88-2.16-4.8-2.16-2.16 0-3.84.72-5.52 2.16-2.16 1.92-3.84 4.8-4.8 8.88-1.2 3.84-1.68 7.68-1.68 11.04"/></g><path fill="transparent" stroke="transparent" d="M664.5 0h671v262h-671z"/></g></svg>